<?xml version="1.0" standalone="no"?>
<svg viewBox="0 0 1024 768" version="1.1" xmlns="http://www.w3.org/2000/svg" xmlns:xlink="http://www.w3.org/1999/xlink" stroke-linecap="round" stroke-linejoin="round" fill-rule="evenodd" xml:space="preserve" >
<defs >
<clipPath id="clipId0" >
<path d="M0,768 1024,768 1024,0 0,0 z" />
</clipPath>
</defs>
<g id="AutoLayers" >
<g id="0" >
<g stroke-width="0.1" clip-path="url(#clipId0)" fill="none" stroke="rgb(0,0,0)" />
<g stroke-width="0.25" clip-path="url(#clipId0)" fill="none" stroke="rgb(0,0,0)" >
<polyline points="148.124,423.383 465.686,423.356 " />
<polyline points="498.594,423.353 509.618,423.352 " />
<polyline points="148.124,420.093 465.686,420.066 " />
<polyline points="498.594,420.063 509.618,420.062 " />
<polyline points="184.323,357.573 181.032,357.574 181.032,193.057 320.891,193.045 320.891,357.562 317.6,357.562 " />
<polyline points="302.792,357.563 199.131,357.572 " />
<polyline points="184.323,354.283 184.323,196.347 317.6,196.335 317.6,354.272 " />
<polyline points="302.792,354.273 199.131,354.282 " />
<polyline points="579.548,406.894 509.618,406.9 509.618,456.256 566.813,456.251 " />
<polyline points="576.999,410.185 512.909,410.191 512.909,452.965 569.361,452.96 " />
<polyline points="897.68,717.181 730.409,760.419 " />
<polyline points="893.671,714.819 857.03,724.29 " />
<polyline points="853.844,725.114 732.772,756.41 " />
<polyline points="657.772,709.527 579.548,406.894 " />
<polyline points="665.29,751.763 662.82,742.206 " />
<polyline points="654.586,710.35 595.3,480.987 " />
<polyline points="181.032,193.057 457.459,193.033 " />
<polyline points="679.66,193.014 719.689,193.011 " />
<polyline points="679.66,196.304 702.389,196.302 " />
<polyline points="705.68,196.302 719.689,196.301 " />
<polyline points="891.505,693.289 822.338,425.699 " />
<polyline points="785.63,283.686 772.321,232.195 " />
<polyline points="848.865,449.428 806.024,283.684 " />
<polyline points="857.815,470.903 856.992,467.718 " />
<polyline points="852.051,448.604 808.572,280.394 " />
<polyline points="888.319,694.113 819.975,429.708 " />
<polyline points="754.087,424.649 744.206,386.422 " />
<polyline points="736.795,357.752 724.881,311.659 " />
<polyline points="757.273,423.826 747.392,385.599 " />
<polyline points="739.981,356.928 728.28,311.659 " />
<polyline points="781.261,279.933 769.135,233.018 " />
<polyline points="640.783,479.425 639.136,473.054 782.511,435.993 " />
<polyline points="783.335,439.179 817.507,571.382 " />
<polyline points="814.32,572.205 677.317,607.619 " />
<polyline points="674.131,608.442 672.484,602.071 " />
<polyline points="668.779,587.736 644.488,493.761 " />
<polyline points="643.969,478.602 643.146,475.416 780.149,440.003 813.497,569.019 676.494,604.433 675.671,601.247 " />
<polyline points="671.965,586.912 647.674,492.937 " />
<polyline points="579.548,406.894 598.486,480.163 574.59,486.34 566.813,456.251 " />
<polyline points="576.999,410.185 594.477,477.801 576.953,482.331 569.361,452.96 " />
<polyline points="184.323,354.283 184.323,357.573 " />
<polyline points="302.792,354.273 302.792,357.563 " />
<polyline points="199.131,354.282 199.131,357.572 " />
<polyline points="317.6,354.272 317.6,357.562 " />
<polyline points="320.891,357.562 317.6,357.562 317.6,193.045 457.459,193.033 457.459,357.55 454.168,357.55 " />
<polyline points="439.36,357.551 335.699,357.56 " />
<polyline points="320.891,354.271 320.891,196.335 454.168,196.324 454.168,354.26 " />
<polyline points="439.36,354.261 335.699,354.27 " />
<polyline points="320.891,354.271 320.891,357.562 " />
<polyline points="439.36,354.261 439.36,357.551 " />
<polyline points="335.699,354.27 335.699,357.56 " />
<polyline points="454.168,354.26 454.168,357.55 " />
<polyline points="499.78,176.578 145.273,176.608 " />
<polyline points="181.032,193.057 181.032,176.605 " />
<polyline points="184.323,193.056 184.323,176.605 " />
<polyline points="457.459,423.357 465.686,423.356 " />
<polyline points="465.686,423.356 465.686,420.066 " />
<polyline points="498.594,420.063 498.594,423.353 " />
<polyline points="457.459,193.033 457.466,217.711 " />
<polyline points="457.466,217.711 460.757,217.71 " />
<polyline points="493.665,217.707 498.601,217.707 " />
<polyline points="457.466,214.42 460.757,214.42 " />
<polyline points="493.665,214.417 498.379,214.417 " />
<polyline points="581.176,290.074 560.514,285.871 540.786,279.469 531.552,274.787 522.914,268.81 515.182,261.592 508.735,253.294 503.948,244.079 500.903,234.158 498.322,213.399 498.315,192.751 500.36,172.387 504.229,152.276 509.695,132.387 516.528,112.688 524.502,93.1475 542.958,54.4145 563.239,15.9347 " />
<polyline points="581.176,286.729 560.76,282.544 541.639,276.252 532.818,271.711 524.612,265.952 517.305,259.037 511.272,251.154 506.854,242.482 504.027,233.049 501.589,212.861 501.618,192.597 503.657,172.585 507.49,152.784 512.901,133.16 519.671,113.682 527.58,94.3219 545.925,55.8409 566.14,17.4876 " />
<polyline points="595.863,290.062 616.528,286.22 636.272,280.09 645.535,275.51 654.215,269.622 661.991,262.494 668.485,254.277 673.326,245.127 676.463,235.258 679.343,214.595 679.697,194.012 678.011,173.672 674.51,153.548 669.421,133.614 662.973,113.842 655.39,94.2047 637.729,55.2277 618.255,16.467 " />
<polyline points="595.863,286.728 616.273,282.903 635.406,276.884 644.254,272.447 652.504,266.779 659.858,259.956 665.94,252.156 670.416,243.546 673.343,234.153 676.082,214.041 676.398,193.837 674.714,173.843 671.246,154.024 666.208,134.351 659.819,114.796 652.296,95.3355 634.739,56.6043 615.324,17.9636 " />
<polyline points="559.747,22.4584 564.08,14.9386 571.274,10.2594 580.285,8.07861 589.459,7.55582 598.189,8.05615 607.401,9.67329 615.443,13.4615 618.316,16.5591 620.295,20.4622 " />
<polyline points="562.76,23.7813 566.497,17.1706 572.477,13.3221 580.707,11.3417 589.444,10.8461 597.846,11.3286 606.522,12.8442 613.404,16.0441 615.565,18.3651 617.284,21.7905 " />
<polyline points="460.757,214.42 460.757,217.71 " />
<polyline points="493.665,217.707 493.665,214.417 " />
<polyline points="595.863,286.728 595.863,290.062 " />
<polyline points="581.176,286.729 581.176,290.074 " />
<polyline points="702.389,311.661 770.089,311.655 " />
<polyline points="702.389,308.371 770.012,308.365 " />
<polyline points="705.68,308.371 770.012,308.365 " />
<polyline points="785.469,283.686 806.024,283.684 " />
<polyline points="785.469,280.396 808.572,280.394 " />
<polyline points="719.689,193.011 729.809,193.622 738.917,195.458 747.013,198.519 754.098,202.805 760.171,208.315 765.233,215.05 769.283,223.01 772.321,232.195 " />
<polyline points="719.689,196.301 729.393,196.886 738.016,198.623 745.58,201.481 752.133,205.444 757.736,210.529 762.436,216.784 766.242,224.267 769.135,233.018 " />
<polyline points="781.261,279.933 782.923,289.553 782.642,296.568 781.084,301.378 778.802,304.536 773.467,307.709 771.239,308.234 770.012,308.365 " />
<polyline points="784.447,279.11 786.206,289.323 785.883,297.139 784.013,302.879 781.129,306.862 777.768,309.411 774.462,310.845 771.747,311.485 770.157,311.652 " />
<polyline points="702.389,196.302 702.389,293.598 " />
<polyline points="702.389,308.371 702.389,311.661 " />
<polyline points="705.68,196.302 705.68,293.597 " />
<polyline points="782.511,435.993 750.65,444.229 " />
<polyline points="702.389,293.598 705.68,293.597 " />
<polyline points="747.392,385.599 744.206,386.422 " />
<polyline points="757.273,423.826 754.087,424.649 " />
<polyline points="736.795,357.752 739.981,356.928 " />
<polyline points="770.157,311.652 770.089,311.655 " />
<polyline points="643.969,478.602 640.783,479.425 " />
<polyline points="644.488,493.761 647.674,492.937 " />
<polyline points="675.671,601.247 672.484,602.071 " />
<polyline points="668.779,587.736 671.965,586.912 " />
<polyline points="674.955,611.628 673.308,605.257 " />
<polyline points="676.494,604.433 813.497,569.019 " />
<polyline points="816.683,568.196 851.678,703.584 " />
<polyline points="724.234,736.527 708.303,740.645 " />
<polyline points="707.48,737.459 706.656,734.273 " />
<polyline points="702.951,719.938 678.66,625.963 " />
<polyline points="678.141,610.804 677.317,607.619 814.32,572.205 847.669,701.222 " />
<polyline points="726.596,732.518 710.666,736.636 709.842,733.45 " />
<polyline points="706.137,719.115 681.846,625.139 " />
<polyline points="813.497,569.019 784.822,576.432 " />
<polyline points="678.141,610.804 674.955,611.628 " />
<polyline points="678.66,625.963 681.846,625.139 " />
<polyline points="709.842,733.45 706.656,734.273 " />
<polyline points="702.951,719.938 706.137,719.115 " />
<polyline points="724.234,736.527 730.409,760.419 " />
<polyline points="727.42,735.703 732.772,756.41 " />
<polyline points="888.319,694.113 893.671,714.819 " />
<polyline points="897.68,717.181 891.505,693.289 " />
<polyline points="708.303,740.645 668.477,750.939 " />
<polyline points="707.48,737.459 667.653,747.754 " />
<polyline points="851.678,703.584 857.03,724.29 " />
<polyline points="848.492,704.407 853.844,725.114 " />
<polyline points="847.669,701.222 848.492,704.407 " />
<polyline points="727.42,735.703 726.596,732.518 " />
<polyline points="668.477,750.939 665.29,751.763 " />
<polyline points="667.653,747.754 666.006,741.383 " />
<polyline points="666.006,741.383 662.82,742.206 " />
<polyline points="654.586,710.35 657.772,709.527 " />
<polyline points="782.511,435.993 822.338,425.699 " />
<polyline points="783.335,439.179 819.975,429.708 " />
<polyline points="822.338,425.699 814.927,397.028 " />
<polyline points="819.152,426.522 811.741,397.852 " />
<polyline points="814.927,397.028 834.044,392.087 " />
<polyline points="822.338,425.699 834.689,473.483 " />
<polyline points="834.689,473.483 856.992,467.718 " />
<polyline points="835.513,476.668 857.815,470.903 " />
<polyline points="829.749,454.369 852.051,448.604 " />
<polyline points="814.927,397.028 811.741,397.852 " />
<polyline points="852.051,448.604 852.051,458.507 " />
<polyline points="852.051,458.507 847.485,458.508 " />
<polyline points="847.485,458.508 857.041,461.026 " />
<polyline points="857.041,461.026 852.106,462.18 " />
<polyline points="852.106,462.18 852.106,468.981 " />
<polyline points="145.273,176.608 150.697,281.525 " />
<polyline points="150.697,281.525 126.32,303.103 " />
<polyline points="126.32,303.103 166.02,303.099 " />
<polyline points="166.02,303.099 150,319.112 " />
<polyline points="150,319.112 158.358,420.092 " />
</g>

</g>
</g>
</svg>
